<?xml version="1.0" encoding="UTF-8"?>
<svg id="_레이어_1" data-name="레이어 1" xmlns="http://www.w3.org/2000/svg" viewBox="0 0 438.1 438.1">
  <polygon points="0 0 438.1 0 438.1 438.1 0 438.1 0 0 0 0" fill="#fff" fill-rule="evenodd"/>
  <path d="M23.71,139.1l-8.05-.42-3.32-.66-.66-1.25c0-1.16.83-1.66,2.49-1.66h83.25c39.01,0,66.4,11.87,82.33,35.69,9.13,13.78,13.69,30.13,13.69,49.05,0,9.88-1.49,19.42-4.57,28.63-3.49,9.71-8.3,18.26-14.52,25.9-6.81,8.05-15.11,14.28-24.65,18.84-10.21,4.65-21.66,7.05-34.53,7.05H9.02c-1.74,0-2.57-.58-2.57-1.58,0-1.08,1.24-1.66,3.57-1.66l20.33-1.24c3.15-.41,5.4-1.33,6.47-2.57l2.07-2.9c.75-1.99,1.16-4.98,1.25-9.05v-131.63c0-5.15-2.91-8.3-8.55-9.54l-7.88-1h0ZM68.52,141.34l-.58,3.32v146.16c0,1.66.33,2.82,1,3.24l3.32.5h10.96l25.4-.91c6.81-.75,12.62-1.83,17.18-3.32,4.56-1.66,8.88-4.07,12.62-6.97,3.32-2.74,6.72-6.64,10.46-11.62,6.22-8.13,10.71-18.51,13.45-31.21,1.66-8.3,2.49-16.35,2.49-24.07,0-6.81-1-14.11-3.07-21.99-2.91-11.37-7.3-21.33-13.53-29.8-12.03-16.43-31.79-24.57-59.09-24.57h-16.85c-1.91-.17-3.15.25-3.73,1.25h0ZM209.79,299.03c-.17-1,.66-1.41,2.49-1.41l5.81-.17c3.15-.41,5.06-1.49,5.81-3.15l1.08-5.98v-48.22c0-1.83-.66-3.24-1.91-4.07l-4.32-.41-5.81,1.58-3.15-.17c-.41-1,.83-1.91,3.73-2.74,6.89-1.83,12.95-4.15,18.09-7.05,3.15-1.83,5.4-2.82,6.39-3.24l2.49-.25c.83.17,1.25,1.83,1.25,4.81v60.75c0,2.9.66,4.98,1.91,6.22,1.49,1.49,4.98,2.24,10.37,2.24,1.91,0,2.9.41,3.07,1.33,0,.75-.58,1-1.58,1h-44.24c-1,0-1.49-.41-1.49-1.08h0ZM405.66,239.27c-4.07,4.23-6.81,9.21-8.3,15.19v35.27c0,3.15,1.08,5.39,3.32,6.81l5.06.91,5.31.58c1.24.17,1.74.41,1.74,1.08l-.25.58-1.41.41h-44.4c-1.33,0-2.07-.41-2.07-1.08l1.24-1,7.47-.58c2.91-.5,4.73-1.49,5.73-2.99l1.25-3.73v-49.8l-.83-3.65-1.41-.83c-.41-.41-1.08-.66-2.07-.83-1.25-.08-2.74.17-4.32.83l-4.23,1.16-2.41-.58c-.41-.58-.25-1,.33-1.24l3.57-1.49c8.13-2.41,14.69-4.9,19.26-7.47l5.64-3.07,2.49.17,1,2.08v18.26c6.22-10.13,11.2-16.35,14.61-18.43,2.07-1.24,4.07-2.24,5.56-2.66l2.9-.25c1.83-.17,3.9.41,6.22,1.91,3.15,1.83,4.81,4.56,4.98,8.05.17,2.9-.66,5.15-2.49,6.89-1.66,1.41-3.32,1.83-4.81,1.41-1.41-.25-2.49-.83-3.24-1.66l-2.32-2.9c-1.83-2.66-3.57-3.49-5.64-2.74-2.41.66-4.9,2.49-7.47,5.39h0ZM232.2,171.05c-3.07,0-5.56,1.08-7.64,3.15-2.24,2.08-3.32,4.73-3.15,7.8-.17,2.9.91,5.39,3.15,7.47,2.07,2.08,4.56,3.15,7.64,3.15,2.9,0,5.48-1.08,7.55-3.15,2.07-2.08,3.24-4.56,3.24-7.47,0-3.07-1.16-5.73-3.24-7.8-2.08-2.07-4.65-3.15-7.55-3.15h0ZM276.18,237.28c2.99-3.98,6.72-7.3,11.2-9.96,3.98-2.32,7.97-3.82,12.12-4.57l15.35-.91c5.56.25,10.71,1.33,15.35,3.4,11.21,4.98,18.26,14.11,20.92,27.39,2.74,13.45.41,24.82-6.89,34.03-6.22,7.8-14.44,12.78-24.82,14.94-10.87,2.41-21,1.66-30.13-2.08-11.87-4.81-19.09-14.36-21.41-28.3-2.07-13.2.66-24.4,8.3-33.95h0ZM324.82,233.55c-5.06-5.64-11.45-8.13-19.17-7.47-7.47.75-13.2,4.9-16.93,12.78-3.4,7.14-4.65,15.85-3.4,26.14.91,10.21,4.15,18.34,9.38,24.57,5.56,6.56,11.87,9.3,18.92,8.05,7.39-1.41,12.78-5.4,16.35-12.03,3.49-6.81,4.73-15.6,3.9-26.81-1-11.2-3.9-19.5-9.05-25.23h0Z" fill="#231f20" fill-rule="evenodd"/>
  <path d="M209.21,237.2v.83l-1.83-1.16v.41l.17.75h-.25v-1.58h.08l1.66,1.25v-1.25h.33l-.17.75h0Z" fill="#231f20" fill-rule="evenodd"/>
  <polygon points="212.28 236.62 211.28 236.62 211.28 237.2 212.11 237.2 212.11 237.28 211.28 237.28 211.28 237.86 212.28 237.86 212.28 238.03 211.03 238.03 211.03 236.45 212.28 236.45 212.28 236.62 212.28 236.62" fill="#231f20" fill-rule="evenodd"/>
  <path d="M216.84,236.45h.08l-.83,1.58h-.25l-.66-1.24-.75,1.24h-.08c-.41-.75-.75-1.24-.83-1.58h.41l.5,1.25.75-1.25h.25l.58,1.25.66-1.25h.17Z" fill="#231f20" fill-rule="evenodd"/>
  <polygon points="219.16 237.28 219.33 238.03 218.92 238.03 218.92 237.45 218.09 236.45 218.5 236.45 219.16 237.28 219.83 236.45 220.16 236.45 219.16 237.28 219.16 237.28" fill="#231f20" fill-rule="evenodd"/>
  <path d="M221.49,236.78c.17-.17.58-.33,1-.33s.66.17,1,.33c.08.08.25.25.25.5l-.25.58c-.33.17-.58.17-1,.17s-.83,0-1-.17l-.41-.58c0-.25.17-.41.41-.5h0ZM223.15,236.78l-.66-.17-.66.17c-.17.08-.33.25-.33.5,0,.17.17.33.33.41l.66.33c.25,0,.58-.17.66-.33.17-.08.33-.25.33-.41,0-.25-.17-.41-.33-.5h0Z" fill="#231f20" fill-rule="evenodd"/>
  <path d="M225.64,236.62l-.08.58h.25c.41,0,.66-.17.66-.33,0-.08-.08-.25-.5-.25h-.33ZM226.05,236.45c.41,0,.75.17.75.42l-.33.33-.41.08,1,.75h-.42l-1-.75h-.08l.08.75h-.42v-1.58h.83Z" fill="#231f20" fill-rule="evenodd"/>
  <polygon points="230.2 236.45 229.12 237.2 230.2 238.03 229.79 238.03 228.88 237.28 228.88 237.2 228.71 237.28 228.88 238.03 228.46 238.03 228.46 236.45 228.88 236.45 228.71 237.2 228.88 237.2 229.95 236.45 230.2 236.45 230.2 236.45" fill="#231f20" fill-rule="evenodd"/>
</svg>