<?xml version="1.0" encoding="UTF-8"?>
<svg id="Layer_1" data-name="Layer 1" xmlns="http://www.w3.org/2000/svg" viewBox="0 0 3054.22 404.64">
  <g>
    <path d="M750.61,204.37h-74.96v-40.51h217.53v40.51h-75.42v42.79h-67.15v-42.79ZM783.72,152.02c-14.72,0-27.89-1.66-39.54-5.01-11.66-3.34-21.62-8.11-29.9-14.34-8.28-6.21-14.57-13.58-18.86-22.07-4.29-8.48-6.43-17.74-6.43-27.77s2.14-19.26,6.43-27.76c4.29-8.5,10.57-15.86,18.86-22.07,8.27-6.22,18.23-11,29.9-14.34,11.65-3.34,24.83-5.01,39.54-5.01s27.91,1.66,39.56,5.01c11.65,3.34,21.61,8.12,29.9,14.34,8.27,6.22,14.55,13.58,18.86,22.07,4.28,8.5,6.43,17.74,6.43,27.76s-2.15,19.28-6.43,27.77c-4.3,8.5-10.59,15.87-18.86,22.07-8.28,6.23-18.25,11-29.9,14.34-11.65,3.34-24.84,5.01-39.56,5.01ZM783.72,112.88c10.74,0,19.7-2.58,26.91-7.73,7.21-5.16,10.65-12.59,10.35-22.31,0-9.7-3.53-17.13-10.57-22.3-7.06-5.16-15.94-7.73-26.68-7.73s-19.62,2.58-26.67,7.73c-7.06,5.17-10.59,12.6-10.59,22.3-.3,9.72,3.14,17.16,10.35,22.31,7.21,5.16,16.17,7.73,26.91,7.73ZM752.92,261.72h293.42v88.3h-226.27v18.66h235.47v35.97h-258c-13.5,0-24.3-3.64-32.42-10.92-8.13-7.28-12.19-17.29-12.19-30.05v-49.61h226.28v-16.39h-226.28v-35.95ZM840.76,214.83h62.55V17.74h62.55v227.13h-125.09v-30.05ZM983.79,17.74h62.55v227.13h-62.55V17.74Z" fill="#ea002c"/>
    <path d="M1099.23,206.18c20.24-4.24,39.93-11.6,59.09-22.07,19.16-10.46,35.64-23.89,49.44-40.28h-107.16v-40.51h130.61c4.61-12.44,7.36-25.79,8.28-40.06h-132V22.75h199.6v22.76c0,12.14-1,23.66-2.99,34.59-1.99,10.92-4.83,21.4-8.51,31.41h69.92V17.74h67.14v214.39h-67.14v-80.12h-91.99c-15.94,21.85-36.94,40.21-63.01,55.07-26.05,14.87-56.1,26.4-90.14,34.59l-21.15-35.5ZM1200.89,404.64c-14.72,0-25.22-3.34-31.5-10.01-6.29-6.68-9.44-16.84-9.44-30.5v-114.7h270.23v155.21h-229.29ZM1365.52,289.94h-138.1v74.2h138.1v-74.2Z" fill="#ea002c"/>
    <path d="M1489.99,27.31h191.49v40.51h-20.7v193.44h25.29v40.52h-200.67v-40.52h25.29V67.81h-20.7V27.31ZM1571.58,260.84l26.65.41V67.81l-26.65-.41v193.44ZM1698.94,142.01V17.74h62.55v384.62h-62.55v-219.85h-41.85v-40.51h41.85ZM1784.03,17.74h62.55v386.9h-62.55V17.74Z" fill="#ff7a00"/>
    <path d="M1905.98,165.22c0-48.25,10.5-84.06,31.5-107.42,21-23.36,49.59-35.05,85.77-35.05s64.77,11.69,85.78,35.05c20.99,23.36,31.5,59.17,31.5,107.42s-10.51,84.06-31.5,107.42c-21.01,23.36-49.61,35.04-85.78,35.04s-64.77-11.68-85.77-35.04c-21-23.36-31.5-59.18-31.5-107.42ZM1971.66,165.22c0,18.21,1.21,33.53,3.68,45.96,2.45,12.45,5.98,22.54,10.57,30.27,4.61,7.75,10.12,13.28,16.56,16.62,6.44,3.34,13.64,5.01,21.61,5.01s15.18-1.66,21.62-5.01c6.43-3.34,11.95-8.87,16.56-16.62,4.59-7.73,8.12-17.82,10.57-30.27,2.45-12.44,3.68-27.76,3.68-45.96s-1.23-33.53-3.68-45.98c-2.45-12.44-5.98-22.53-10.57-30.27-4.61-7.73-10.12-13.26-16.56-16.61-6.44-3.34-13.65-5.01-21.62-5.01s-15.17,1.66-21.61,5.01c-6.43,3.34-11.95,8.87-16.56,16.61-4.59,7.75-8.12,17.83-10.57,30.27-2.47,12.45-3.68,27.77-3.68,45.98ZM2174.96,17.74h67.14v386.9h-67.14V17.74Z" fill="#ff7a00"/>
    <path d="M2297.96,23.61h209.69v79.65h49.21V18.6h67.15v296.32h-67.15v-171.14h-49.21v84.66h-168.76c-14.72,0-25.23-3.34-31.5-10.01-6.29-6.67-9.44-16.84-9.44-30.5V23.61ZM2399.06,404.23c-14.72,0-25.23-3.34-31.51-10.01-6.28-6.68-9.42-16.84-9.42-30.5v-96.96h67.14v96.96h204.73v40.51h-230.94ZM2364.65,61.2v123.4h75.85V61.2h-75.85Z" fill="#ff7a00"/>
    <path d="M2687.75,291.3h366.47v40.51h-366.47v-40.51ZM2722.11,45.51h112.19V0h74.19v45.51h108.08v40.51h-107.16c1.21,15.18,4.2,29.43,8.96,42.79,4.76,13.35,11.73,25.49,20.94,36.42,9.2,10.92,21.07,20.56,35.64,28.91,14.55,8.35,32.57,14.94,54.04,19.8l-18.4,35.95c-31.27-5.76-58.18-15.39-80.72-28.91-22.54-13.49-40.86-32.09-54.96-55.75-13.79,23.66-39.08,42.26-61.77,55.75-22.7,13.52-49.52,23.15-80.49,28.91l-18.4-35.95c21.16-4.86,39.02-11.45,53.59-19.8,14.55-8.35,26.44-17.98,35.64-28.91,9.2-10.92,16.09-23.06,20.7-36.42,4.59-13.35,7.66-27.61,9.2-42.79h-111.28v-40.51Z" fill="#ff7a00"/>
  </g>
  <g>
    <path d="M363.92,89.4c50.1,0,92.73,31.87,108.94,76.41,2.32,6.27,4.05,12.8,5.21,19.49,1.19,6.6,1.92,13.29,1.92,20.14s-.73,13.61-1.92,20.14c-1.16,6.77-2.9,13.25-5.21,19.55-2.34,6.4-5.17,12.52-8.51,18.31-3.4,5.85-7.24,11.45-11.58,16.58-21.3,25.35-53.17,41.51-88.85,41.51-50.16,0-92.78-31.85-108.99-76.39-2.26-6.31-4.06-12.78-5.24-19.55-1.13-6.53-1.83-13.22-1.83-20.14s.7-13.55,1.83-20.14l-76.19-13.4c-1.88,10.92-2.94,22.13-2.94,33.54s1.05,22.66,2.94,33.61c1.95,11.18,4.86,22.07,8.66,32.59,27.02,74.17,98.17,127.19,181.76,127.19,59.42,0,112.6-26.88,148.07-69.14,7.22-8.54,13.7-17.81,19.32-27.55,5.66-9.7,10.44-19.89,14.34-30.5,3.82-10.49,6.69-21.41,8.66-32.59,1.93-10.95,2.95-22.12,2.95-33.61s-1.03-22.62-2.95-33.54c-1.97-11.23-4.84-22.13-8.66-32.59-27.01-74.2-98.19-127.21-181.72-127.21v77.3Z" fill="#ff7a00"/>
    <path d="M193.39,89.4c-50.16,0-92.75,31.87-108.96,76.41-2.29,6.27-4.06,12.8-5.24,19.49-1.16,6.6-1.88,13.29-1.88,20.14s.73,13.61,1.88,20.14c1.19,6.77,2.95,13.25,5.24,19.55,2.33,6.4,5.14,12.52,8.51,18.31,3.39,5.85,7.27,11.45,11.6,16.58,21.23,25.35,53.15,41.51,88.85,41.51,50.16,0,92.75-31.85,108.94-76.39,2.32-6.31,4.06-12.78,5.27-19.55,1.13-6.53,1.86-13.22,1.86-20.14s-.73-13.55-1.86-20.14l76.17-13.4c1.9,10.92,2.95,22.13,2.95,33.54s-1.05,22.66-2.95,33.61c-1.97,11.18-4.84,22.07-8.66,32.59-27.03,74.17-98.19,127.19-181.72,127.19-59.47,0-112.62-26.88-148.09-69.14-7.22-8.54-13.68-17.81-19.36-27.55-5.59-9.7-10.43-19.89-14.3-30.5-3.81-10.49-6.66-21.41-8.66-32.59-1.91-10.95-2.98-22.12-2.98-33.61s1.07-22.62,2.98-33.54c2-11.23,4.85-22.13,8.66-32.59C38.67,65.11,109.83,12.1,193.39,12.1v77.3Z" fill="#ea002c"/>
  </g>
</svg>