<?xml version="1.0" encoding="UTF-8"?>
<svg id="_레이어_1" data-name="레이어 1" xmlns="http://www.w3.org/2000/svg" viewBox="0 0 615.66 106.87">
  <path d="M550.26,56.64c13.51,0,25.59,5.92,25.59,23.7,0,14.69-14.93,23.93-23.46,23.93-15.88,0-25.36-11.61-25.36-23.93,0-14.22,9.72-23.7,23.22-23.7h0ZM549.31,59c-8.06,0-13.74,9.48-12.56,21.09,1.18,11.61,8.53,21.09,16.59,21.09s13.98-9.48,12.8-21.09c-1.18-11.61-8.53-21.09-16.82-21.09h0ZM142.2,103.55v-1.42c4.74,0,8.77-.71,8.77-4.03v-32.23c0-.71,0-1.9-1.42-1.9l-8.06,1.9v-.95l18.25-7.35h.71v12.8c4.74-5.21,10.19-12.32,13.74-12.32s5.21,2.37,5.21,4.74c.24,2.84-1.66,5.45-4.74,5.45-1.66.24-3.32-1.18-4.5-2.37s-3.55,0-4.98,1.42c-2.61,3.08-4.27,4.98-4.74,8.77v22.04c0,4.03,3.55,4.03,10.19,4.03v1.42h-28.44ZM578.22,103.55v-1.42c4.98,0,9-.71,9-4.03v-32.23c0-.71,0-1.9-1.66-1.9l-8.06,1.9v-.95l18.25-7.35h.71v12.8c4.74-5.21,10.19-12.32,13.74-12.32s5.21,2.37,5.45,4.74c0,2.84-2.13,5.69-4.98,5.45-1.9,0-3.32-1.18-4.5-2.37-.95-1.18-3.55-.24-4.98,1.42-2.61,2.84-4.74,4.74-4.74,8.77v22.04c0,4.03,3.55,4.03,10.19,4.03v1.42h-28.44ZM10.68,89.57C1.44,77.25-.22,65.17.02,50,1.44,31.75,9.74,14.69,27.04,6.4c6.64-3.32,16.11-5.45,25.59-5.21,4.74,0,9.24.47,13.27,1.9,2.13.71,4.5,1.66,6.87,1.9.95.24,1.66.24,2.13-.47.71-.95,1.18-2.37,1.42-3.32h1.9l7.82,32.94-.71-.24c-4.03-10.19-7.35-18.72-17.06-25.83-3.55-2.61-7.35-4.03-12.32-4.74-12.09-1.42-25.83,7.58-31.75,17.54-4.98,8.29-7.35,18.72-7.58,29.15,0,21.56,9.95,49.53,35.78,50.24,10.9.24,26.54-6.16,35.78-18.25l.71.71c-2.84,6.4-13.51,15.64-16.82,17.3-7.58,4.98-15.64,6.87-27.73,6.87-13.74,0-25.59-6.4-33.65-17.3h0ZM219.93,104.03c-2.37,0-9.24-1.66-11.37-3.32l-1.42-14.93h1.18c.47,4.27,1.66,6.87,3.55,10.9,1.42,3.32,6.16,5.45,10.43,5.45,4.98,0,9.48-2.84,9.48-9.48,0-4.74-4.5-7.11-9.24-9.48-5.21-3.08-10.9-6.16-10.9-13.51,0-8.06,6.4-13.03,12.8-13.03,4.03,0,6.64,0,9.48.95,1.18.24,1.9,1.66,2.37-.24h1.42l1.42,14.46h-1.18c-.47-3.08-1.66-6.4-3.08-9-1.42-2.37-2.84-4.27-5.92-4.5-7.11-.95-10.9,3.32-10.66,7.82.47,5.21,6.64,8.06,10.43,10.43,6.87,4.27,12.32,7.35,11.37,16.59-.95,9.95-12.09,10.9-20.14,10.9h0ZM257.61,104.03c-4.5,0-7.11-4.03-7.11-10.9v-26.54c0-2.13,0-6.16-2.61-6.16h-5.21v-.71l7.82-1.9v-7.82l8.77-7.35v15.17h13.27v2.61h-13.27v32.23c0,6.87.24,7.82,3.79,7.82,4.03.24,5.92-.47,9.48-3.08v.71c-3.55,3.55-8.06,5.92-14.93,5.92h0ZM82.96,103.55h28.67v-1.66c-4.03,0-7.58.47-7.58-8.77v-23.7c2.61-3.32,7.58-7.35,12.32-7.35,4.5.24,7.35,2.37,7.35,6.16v26.78c0,7.11-3.32,7.11-7.82,7.11v1.42h23.93v-1.42c-4.98,0-7.82,0-7.82-6.64v-27.73c0-7.11-5.92-10.66-12.56-10.43-4.03.24-7.35,2.37-10.9,5.45-1.42,1.42-2.37,2.37-3.79,3.55-.71.47-.71,0-.71-.71V0h-.95l-16.35,6.4v1.18l4.03-1.18c4.5-1.18,4.5,3.08,4.5,6.16v80.57c0,8.77-5.21,9-12.32,9v1.42h0ZM326.33,97.39c-3.32,2.13-9,6.64-16.11,6.64-5.92,0-10.19-3.55-10.19-9.72,0-2.61.95-5.21,3.08-6.4,7.58-5.45,15.64-8.53,23.22-11.61v-11.85c0-3.79-1.9-6.64-5.69-6.64-4.03-.24-7.35,2.61-7.35,6.64,0,1.42.47,2.61.24,4.03-.71,2.84-2.61,3.79-4.98,4.03-1.9,0-4.03-1.66-4.03-4.5,0-7.58,9.48-11.61,15.88-11.61,2.84,0,5.69.71,8.53,1.66,4.74,2.84,6.64,5.21,6.64,11.14v28.2c0,5.69,5.92,5.69,8.29,1.42h.71c-1.18,2.61-6.4,5.21-9.72,5.21-4.27,0-8.29-1.66-8.53-6.64h0ZM311.4,92.42c.24,5.21,3.32,7.35,7.11,7.11,2.37-.24,4.98-1.66,7.11-4.27.71-1.18.71-3.08.71-5.21v-11.14c-8.53,2.13-15.4,6.64-14.93,13.51h0ZM177.75,103.55h26.78v-1.42c-5.21,0-7.58-1.18-7.58-7.58v-36.97h-1.42l-13.74,5.45v.95c4.5-.24,6.4-1.42,6.4,3.32v27.49c0,6.4-3.08,7.35-10.43,7.35v1.42h0ZM271.11,103.55h26.78v-1.42c-5.45,0-7.82-1.18-7.82-7.58v-36.97h-1.42l-13.74,5.45v.95c4.5-.24,6.64-1.42,6.64,3.32v27.49c0,6.4-3.08,7.35-10.43,7.35v1.42h0ZM495.99,103.55v-1.42c7.58,0,10.43-.95,10.43-7.35v-27.49c0-4.74-1.9-3.55-6.4-3.32v-.95l13.74-5.45h1.42v36.97c0,6.4,2.37,7.58,7.58,7.58v1.42h-26.78ZM400.26,103.55h45.02c29.62,0,51.42-13.03,51.42-48.1,0-49.29-34.83-48.1-71.56-48.1h-30.81v2.37c11.37,0,18.48,0,18.48,7.35v74.64c0,9.24-4.98,9.24-12.56,9.24v2.61h0ZM192.68,34.12c2.61,0,4.98,2.13,4.98,4.98s-2.37,5.21-4.98,5.21c-2.84,0-5.21-2.37-5.21-5.21s2.37-4.98,5.21-4.98h0ZM285.8,34.12c2.84,0,5.21,2.13,5.21,4.98s-2.37,5.21-5.21,5.21-5.21-2.37-5.21-5.21,2.37-4.98,5.21-4.98h0ZM510.92,34.12c2.84,0,4.98,2.13,4.98,4.98s-2.13,5.21-4.98,5.21-5.21-2.37-5.21-5.21,2.37-4.98,5.21-4.98h0ZM361.4,68.25c4.27-4.03,9.95-10.9,15.88-10.66,8.06,0,12.32,3.55,12.32,12.09v28.44c0,4.03,1.9,4.03,8.53,4.03v1.42h-23.7v-1.42c4.03,0,6.4,0,6.4-4.27l.24-28.2c0-5.21-2.61-6.87-5.45-6.87-4.74.47-11.14,5.92-14.22,9v26.3c0,4.03,1.9,4.03,8.29,4.03v1.42h-23.46v-1.42c4.27,0,6.4,0,6.4-4.27v-31.99c0-.71,0-2.37-2.13-1.9l-5.21.95v-1.18l15.17-6.16h.95v10.66h0ZM427.51,18.48c0-8.77,4.5-8.77,8.53-8.77,33.18,0,44.31,7.35,44.31,45.73s-11.61,45.5-44.31,45.5c-4.03,0-8.53,0-8.53-8.53V18.48Z" fill="#231f20"/>
</svg>