<?xml version="1.0" encoding="UTF-8"?>
<svg id="Layer_1" data-name="Layer 1" xmlns="http://www.w3.org/2000/svg" viewBox="0 0 210.37 63.25">
  <path d="M16.16,55.32l2.09-8.5,3.28-13.41,2.25,10.7c.36.02.61.05.89-.06,1.07-5.61,2.34-11.12,3.81-16.65L35.74.02h12.75s-4.65,15.49-4.65,15.49l-9.79,32.27-4.45,14.84h-11.33s-2.1-7.3-2.1-7.3Z" fill="#5386b5"/>
  <path d="M21.24,28.66l-5,20.4-3.35,13.48-3.12.08H.49s1.35-4.84,1.35-4.84L11.22,24.76,18.21,0h13.02s1.55,5.86,1.55,5.86l-5.81,21.85-.75-3.71-1.5-8.92c-.25.01-.48.04-.67.16l-2.8,13.41Z" fill="#78b14a"/>
  <path d="M133.73,62.59l-4.33.02-4.59-9.95c-1.53-3.32-2.91-6.58-3.92-10.05-.13.74-.05,1.39,0,2.1l.49,6.69.07,11.24h-6.15s0-30.95,0-30.95h6.21s2.97,6.25,2.97,6.25l.89,1.89c1.55,3.05,2.86,6.15,4.08,9.35.29.77.35,1.55.88,2.27-.46-6.65-.68-13.11-.53-19.78h6.1s0,30.86,0,30.86l-2.19.06Z" fill="#78b14a"/>
  <path d="M172.73,63.21c-2.98-.14-5.65-1.32-7.59-3.5-2.37-2.65-3.07-7.15-3.2-10.7-.15-4.01.05-8.83,1.91-12.35,1.4-2.66,3.78-4.54,6.73-5.23,2.53-.6,5.12-.54,7.61.17,4.91,1.41,7.1,5.56,7.75,10.43.4,3.02.42,6,.14,9.03-.22,2.36-.77,4.59-1.83,6.68-1.28,2.54-3.49,4.29-6.23,5.04-1.72.47-3.4.52-5.28.43ZM176.22,57.14c2.64-1.41,2.69-6.65,2.69-9.68,0-2.27-.03-4.45-.49-6.66-.56-2.68-1.88-4.26-4.71-4.14-2.81.12-3.91,2.62-4.27,5.28-.45,3.39-.41,6.76-.04,10.16.21,1.94.91,4.38,2.68,5.15,1.27.55,2.85.58,4.13-.1Z" fill="#78b14a"/>
  <path d="M160.67,49.64c-.14,2.26-.46,4.36-1.2,6.43-1.25,3.49-4.21,5.9-7.89,6.37l-1.66.17h-10.92s0-30.93,0-30.93l2.4-.04,3.01-.02,6.3.12c1.16.02,2.23.32,3.3.7,2.64.94,4.6,2.98,5.52,5.63.72,2.06,1,4.15,1.14,6.34v5.22ZM153.19,52.5c.54-3.49.53-6.92.09-10.36-.14-1.09-.42-2.07-.89-3.04-.62-1.07-1.71-1.81-2.97-1.83l-3.72-.06v19.76s3.23-.05,3.23-.05c1.14-.02,2.23-.41,2.98-1.27.7-.9,1.09-1.93,1.28-3.15Z" fill="#78b14a"/>
  <polygon points="75.47 62.61 68.76 62.62 68.76 31.67 75.46 31.67 75.46 43.4 82.57 43.41 82.57 31.7 85.55 31.64 89.26 31.68 89.26 62.62 82.56 62.62 82.57 49.18 75.48 49.18 75.47 62.61" fill="#78b14a"/>
  <polygon points="201.61 47.08 209.71 62.62 202.42 62.63 198.19 54.37 195.1 48.29 195.07 62.63 188.34 62.62 188.35 31.62 195.07 31.62 195.09 45.71 202.58 31.62 210.37 31.64 203.84 43.3 201.61 47.08" fill="#78b14a"/>
  <polygon points="104.35 14.34 108.24 .02 115.17 .04 105.77 30.97 99.74 30.97 90.71 .03 97.89 .02 101.96 16.99 102.77 20.73 104.35 14.34" fill="#5386b5"/>
  <polygon points="121.12 8.89 118.31 21.59 116.01 30.97 109.17 30.95 113.61 15.39 118.01 .02 124.65 .02 133.1 30.95 126.01 30.98 122.86 17.18 121.12 8.89" fill="#5386b5"/>
  <polygon points="103.87 47.44 102.56 41.7 101.01 48.91 97.35 62.62 90.49 62.63 95.76 45.02 99.7 31.61 105.86 31.61 110.74 48.59 114.69 62.6 107.53 62.63 103.87 47.44" fill="#78b14a"/>
  <polygon points="87.65 17.57 79.82 17.58 79.82 25.2 90.3 25.21 90.29 30.97 73.14 30.97 73.15 .03 89.52 .02 89.52 5.67 79.83 5.68 79.83 12.03 87.64 12.04 87.65 17.57" fill="#5386b5"/>
  <polygon points="64.95 30.96 58.28 30.97 58.28 5.81 51.78 5.81 51.78 .02 71.41 .03 71.42 5.8 64.95 5.82 64.95 30.96" fill="#5386b5"/>
  <polygon points="35.11 62.63 33.06 55.6 40 32.85 48.14 62.62 35.11 62.63" fill="#78b14a"/>
  <polygon points="15.04 6.15 10.99 20.48 8.57 29.04 0 .03 13.27 .02 15.04 6.15" fill="#5386b5"/>
</svg>